<svg xmlns="http://www.w3.org/2000/svg" xmlns:xlink="http://www.w3.org/1999/xlink" width="64" height="64" viewBox="0 0 64 64">
  <defs>
    <clipPath id="clip-Document-iconB">
      <rect width="64" height="64"/>
    </clipPath>
  </defs>
  <g id="Document-iconB" clip-path="url(#clip-Document-iconB)">
    <g id="Group_333" data-name="Group 333">
      <rect id="Rectangle_73" data-name="Rectangle 73" width="64" height="64" fill="none"/>
      <path id="Exclusion_3" data-name="Exclusion 3" d="M37,32a4.3,4.3,0,0,1-1.168-.157,3.356,3.356,0,0,1-.954-.429,2.179,2.179,0,0,1-.643-.636A1.438,1.438,0,0,1,34,30V2a1.438,1.438,0,0,1,.236-.778,2.179,2.179,0,0,1,.643-.636,3.356,3.356,0,0,1,.954-.429,4.416,4.416,0,0,1,2.335,0,3.356,3.356,0,0,1,.954.429,2.179,2.179,0,0,1,.643.636A1.438,1.438,0,0,1,40,2V30a1.438,1.438,0,0,1-.236.778,2.179,2.179,0,0,1-.643.636,3.356,3.356,0,0,1-.954.429A4.3,4.3,0,0,1,37,32ZM3,32a4.3,4.3,0,0,1-1.168-.157,3.356,3.356,0,0,1-.954-.429,2.179,2.179,0,0,1-.643-.636A1.438,1.438,0,0,1,0,30V2a1.438,1.438,0,0,1,.236-.778A2.179,2.179,0,0,1,.879.586,3.356,3.356,0,0,1,1.832.157,4.3,4.3,0,0,1,3,0,4.3,4.3,0,0,1,4.168.157a3.356,3.356,0,0,1,.954.429,2.179,2.179,0,0,1,.643.636A1.438,1.438,0,0,1,6,2V30a1.438,1.438,0,0,1-.236.778,2.179,2.179,0,0,1-.643.636,3.356,3.356,0,0,1-.954.429A4.3,4.3,0,0,1,3,32Zm29-3H8V3H32V29ZM18.054,18.68a.485.485,0,0,0-.336.133l-.734.7a.508.508,0,0,0-.156.4.485.485,0,0,0,.192.361,3.578,3.578,0,0,0,1.961.709V22a.5.5,0,0,0,.5.5h1a.5.5,0,0,0,.5-.5V20.993a2.653,2.653,0,0,0,1.039-.241,2.735,2.735,0,0,0,.848-.607,2.816,2.816,0,0,0,.571-.887,2.869,2.869,0,0,0,.209-1.081,2.829,2.829,0,0,0-1.974-2.712l-2.812-.844a.815.815,0,0,1-.548-.8A.785.785,0,0,1,19.05,13h1.757a1.506,1.506,0,0,1,.8.232.56.56,0,0,0,.3.088.484.484,0,0,0,.336-.133l.734-.7a.508.508,0,0,0,.156-.4.485.485,0,0,0-.192-.361,3.574,3.574,0,0,0-1.961-.709V10a.5.5,0,0,0-.5-.5h-1a.5.5,0,0,0-.5.5v1.007a2.652,2.652,0,0,0-1.039.241,2.736,2.736,0,0,0-.848.607,2.817,2.817,0,0,0-.571.887,2.868,2.868,0,0,0-.209,1.081,2.829,2.829,0,0,0,1.974,2.712l2.813.844a.815.815,0,0,1,.548.8.785.785,0,0,1-.737.824H19.153a1.511,1.511,0,0,1-.8-.233A.56.56,0,0,0,18.054,18.68Z" transform="translate(12 16)"/>
    </g>
  </g>
</svg>
