<svg xmlns="http://www.w3.org/2000/svg" xmlns:xlink="http://www.w3.org/1999/xlink" width="64" height="64" viewBox="0 0 64 64">
  <defs>
    <clipPath id="clip-Document-iconD">
      <rect width="64" height="64"/>
    </clipPath>
  </defs>
  <g id="Document-iconD" clip-path="url(#clip-Document-iconD)">
    <g id="Group_331" data-name="Group 331">
      <rect id="Rectangle_74" data-name="Rectangle 74" width="64" height="64" fill="none"/>
      <path id="box-open-solid" d="M32.024,48.837a3.651,3.651,0,0,1-3.118-1.762l-4.843-8.029-4.836,8.029a3.663,3.663,0,0,1-3.126,1.77,3.464,3.464,0,0,1-1-.143L4.781,45.749V59.156A2.4,2.4,0,0,0,6.6,61.491l16.284,4.075a4.9,4.9,0,0,0,2.335,0l16.3-4.075a2.415,2.415,0,0,0,1.823-2.335V45.749L33.026,48.694A3.464,3.464,0,0,1,32.024,48.837Zm16.013-8.451-3.879-7.743a1.23,1.23,0,0,0-1.258-.67l-18.837,2.4L30.97,45.832a1.238,1.238,0,0,0,1.393.55l14.906-4.256a1.241,1.241,0,0,0,.768-1.74ZM3.968,32.644.089,40.387A1.228,1.228,0,0,0,.85,42.119l14.906,4.256a1.238,1.238,0,0,0,1.393-.55l6.914-11.449-18.845-2.4a1.231,1.231,0,0,0-1.25.67Z" transform="translate(7.939 -11.963)"/>
    </g>
  </g>
</svg>
