<svg xmlns="http://www.w3.org/2000/svg" xmlns:xlink="http://www.w3.org/1999/xlink" width="64" height="64" viewBox="0 0 64 64">
  <defs>
    <clipPath id="clip-Document-iconC">
      <rect width="64" height="64"/>
    </clipPath>
  </defs>
  <g id="Document-iconC" clip-path="url(#clip-Document-iconC)">
    <g id="Group_332" data-name="Group 332">
      <rect id="Rectangle_71" data-name="Rectangle 71" width="64" height="64" fill="none"/>
      <path id="Exclusion_4" data-name="Exclusion 4" d="M43.8,42.474H15.933a7.974,7.974,0,0,0,7.958-7.964V31.855H51.764a1.329,1.329,0,0,1,1.327,1.328A9.3,9.3,0,0,1,43.8,42.474ZM15.927,39.819a5.315,5.315,0,0,1-5.308-5.309V3.982A6.562,6.562,0,0,0,9.257,0H37.164a7.973,7.973,0,0,1,7.964,7.964V29.2H21.236v5.025a5.51,5.51,0,0,1-4.417,5.521A5.57,5.57,0,0,1,15.927,39.819Zm9.99-24.394a6.04,6.04,0,0,0-6.034,6.034,1.007,1.007,0,0,0,1.006,1.005H34.967a1.007,1.007,0,0,0,1.006-1.005,6.04,6.04,0,0,0-6.034-6.034ZM27.928,5.369A4.022,4.022,0,1,0,31.95,9.391,4.027,4.027,0,0,0,27.928,5.369ZM7.964,10.618H1.328A1.329,1.329,0,0,1,0,9.291V3.982a3.982,3.982,0,0,1,7.964,0v6.636Z" transform="translate(5.013 10.41)"/>
    </g>
  </g>
</svg>
